<svg width="81" height="80" viewBox="0 0 81 80" fill="none" xmlns="http://www.w3.org/2000/svg">
<path d="M57.1667 11.6668C57.1667 11.2248 56.9911 10.8009 56.6785 10.4883C56.3659 10.1758 55.942 10.0002 55.5 10.0002H47.1667C42.9704 9.79115 38.862 11.2515 35.7391 14.0621C32.6162 16.8727 30.7326 20.8052 30.5 25.0002V34.0002H22.1667C21.7246 34.0002 21.3007 34.1758 20.9882 34.4883C20.6756 34.8009 20.5 35.2248 20.5 35.6668V44.3335C20.5 44.7755 20.6756 45.1995 20.9882 45.512C21.3007 45.8246 21.7246 46.0002 22.1667 46.0002H30.5V68.3335C30.5 68.7755 30.6756 69.1995 30.9882 69.512C31.3007 69.8246 31.7246 70.0002 32.1667 70.0002H42.1667C42.6087 70.0002 43.0326 69.8246 43.3452 69.512C43.6577 69.1995 43.8333 68.7755 43.8333 68.3335V46.0002H52.5667C52.9373 46.0055 53.2991 45.8871 53.5949 45.6638C53.8908 45.4404 54.1037 45.1248 54.2 44.7668L56.6 36.1002C56.6663 35.8539 56.6752 35.5957 56.626 35.3455C56.5769 35.0952 56.4709 34.8596 56.3164 34.6567C56.1618 34.4539 55.9628 34.2892 55.7345 34.1754C55.5063 34.0615 55.255 34.0016 55 34.0002H43.8333V25.0002C43.9162 24.1751 44.3037 23.4106 44.9201 22.8558C45.5364 22.3011 46.3374 21.996 47.1667 22.0002H55.5C55.942 22.0002 56.3659 21.8246 56.6785 21.512C56.9911 21.1995 57.1667 20.7755 57.1667 20.3335V11.6668Z" fill="white" fill-opacity="0.7"/>
</svg>
