<svg width="81" height="80" viewBox="0 0 81 80" fill="none" xmlns="http://www.w3.org/2000/svg">
<path d="M40.5033 6.66699C22.0867 6.66699 7.16999 21.5837 7.16999 40.0003C7.16597 46.9975 9.36532 53.8183 13.456 59.4952C17.5467 65.172 23.3211 69.4167 29.96 71.627C31.6267 71.917 32.2533 70.917 32.2533 70.0403C32.2533 69.2503 32.21 66.627 32.21 63.8337C23.8367 65.377 21.67 61.7937 21.0033 59.917C20.6267 58.957 19.0033 56.0003 17.5867 55.207C16.42 54.5837 14.7533 53.0403 17.5433 53.0003C20.17 52.957 22.0433 55.417 22.67 56.417C25.67 61.457 30.46 60.0403 32.3767 59.167C32.67 57.0003 33.5433 55.5437 34.5033 54.7103C27.0867 53.877 19.3367 51.0003 19.3367 38.2503C19.3367 34.6237 20.6267 31.627 22.7533 29.2903C22.42 28.457 21.2533 25.0403 23.0867 20.457C23.0867 20.457 25.8767 19.5837 32.2533 23.877C34.9669 23.1239 37.7705 22.7448 40.5867 22.7503C43.42 22.7503 46.2533 23.1237 48.92 23.8737C55.2967 19.5403 58.0867 20.4603 58.0867 20.4603C59.92 25.0437 58.7533 28.4603 58.42 29.2937C60.5433 31.627 61.8367 34.5837 61.8367 38.2503C61.8367 51.0437 54.0467 53.877 46.6267 54.7103C47.8367 55.7503 48.88 57.7503 48.88 60.877C48.88 65.3337 48.8367 68.917 48.8367 70.0437C48.8367 70.917 49.4633 71.957 51.13 71.6237C57.7461 69.3891 63.495 65.1362 67.5677 59.4634C71.6403 53.7906 73.8317 46.9836 73.8333 40.0003C73.8333 21.5837 58.9167 6.66699 40.5 6.66699H40.5033Z" fill="white" fill-opacity="0.7"/>
</svg>
