<svg width="81" height="80" viewBox="0 0 81 80" fill="none" xmlns="http://www.w3.org/2000/svg">
<path d="M43.9267 6.67012C46.3591 6.66078 48.7916 6.68523 51.2233 6.74345L51.87 6.76678C52.6167 6.79345 53.3533 6.82678 54.2433 6.86678C57.79 7.03345 60.21 7.59345 62.3333 8.41678C64.5333 9.26345 66.3867 10.4101 68.24 12.2634C69.9346 13.9288 71.2461 15.9433 72.0833 18.1668C72.9067 20.2901 73.4667 22.7134 73.6333 26.2601C73.6733 27.1468 73.7067 27.8868 73.7333 28.6334L73.7533 29.2801C73.8126 31.7108 73.8381 34.1421 73.83 36.5735L73.8333 39.0601V43.4268C73.8415 45.8592 73.816 48.2917 73.7567 50.7234L73.7367 51.3701C73.71 52.1168 73.6767 52.8534 73.6367 53.7434C73.47 57.2901 72.9033 59.7101 72.0833 61.8334C71.2488 64.0593 69.937 66.0754 68.24 67.7401C66.5732 69.4345 64.5577 70.746 62.3333 71.5835C60.21 72.4068 57.79 72.9668 54.2433 73.1334C53.3533 73.1734 52.6167 73.2068 51.87 73.2334L51.2233 73.2534C48.7916 73.3127 46.3591 73.3383 43.9267 73.3301L41.44 73.3334H37.0767C34.6442 73.3417 32.2117 73.3161 29.78 73.2568L29.1333 73.2368C28.342 73.2081 27.5509 73.1748 26.76 73.1368C23.2133 72.9701 20.7933 72.4035 18.6667 71.5835C16.4423 70.7479 14.4274 69.4362 12.7633 67.7401C11.0668 66.0744 9.75407 64.0586 8.91666 61.8334C8.09332 59.7101 7.53332 57.2901 7.36666 53.7434C7.32953 52.9525 7.2962 52.1614 7.26666 51.3701L7.24999 50.7234C7.18854 48.2917 7.16076 45.8593 7.16666 43.4268V36.5735C7.15735 34.1421 7.1818 31.7108 7.23999 29.2801L7.26332 28.6334C7.28999 27.8868 7.32332 27.1468 7.36332 26.2601C7.52999 22.7101 8.08999 20.2934 8.91332 18.1668C9.75123 15.9422 11.0665 13.9283 12.7667 12.2668C14.4296 10.5693 16.4432 9.25536 18.6667 8.41678C20.7933 7.59345 23.21 7.03345 26.76 6.86678L29.1333 6.76678L29.78 6.75012C32.2106 6.68869 34.6419 6.66091 37.0733 6.66678L43.9267 6.67012ZM40.5 23.3368C38.2917 23.3055 36.0992 23.7135 34.0499 24.537C32.0006 25.3605 30.1355 26.583 28.5628 28.1336C26.9901 29.6842 25.7413 31.5319 24.8889 33.5693C24.0366 35.6067 23.5976 37.7932 23.5976 40.0018C23.5976 42.2103 24.0366 44.3968 24.8889 46.4342C25.7413 48.4717 26.9901 50.3193 28.5628 51.8699C30.1355 53.4205 32.0006 54.6431 34.0499 55.4666C36.0992 56.29 38.2917 56.698 40.5 56.6668C44.9203 56.6668 49.1595 54.9108 52.2851 51.7852C55.4107 48.6596 57.1667 44.4204 57.1667 40.0001C57.1667 35.5798 55.4107 31.3406 52.2851 28.215C49.1595 25.0894 44.9203 23.3368 40.5 23.3368ZM40.5 30.0034C41.8284 29.979 43.1483 30.2194 44.3826 30.7108C45.617 31.2022 46.7411 31.9346 47.6893 32.8653C48.6374 33.7959 49.3906 34.9062 49.9048 36.1313C50.419 37.3563 50.684 38.6715 50.6842 40.0001C50.6844 41.3287 50.4199 42.644 49.9061 43.8692C49.3923 45.0944 48.6395 46.2049 47.6916 47.1359C46.7438 48.0669 45.62 48.7997 44.3857 49.2915C43.1515 49.7832 41.8317 50.0241 40.5033 50.0001C37.8512 50.0001 35.3076 48.9465 33.4323 47.0712C31.5569 45.1958 30.5033 42.6523 30.5033 40.0001C30.5033 37.3479 31.5569 34.8044 33.4323 32.929C35.3076 31.0537 37.8512 30.0001 40.5033 30.0001L40.5 30.0034ZM58 18.3368C56.9246 18.3798 55.9076 18.8373 55.162 19.6134C54.4164 20.3894 54 21.4239 54 22.5001C54 23.5763 54.4164 24.6108 55.162 25.3869C55.9076 26.1629 56.9246 26.6204 58 26.6634C59.1051 26.6634 60.1649 26.2245 60.9463 25.4431C61.7277 24.6617 62.1667 23.6019 62.1667 22.4968C62.1667 21.3917 61.7277 20.3319 60.9463 19.5505C60.1649 18.7691 59.1051 18.3301 58 18.3301V18.3368Z" fill="white" fill-opacity="0.7"/>
</svg>
