<svg width="80" height="80" viewBox="0 0 80 80" fill="none" xmlns="http://www.w3.org/2000/svg">
<path d="M23.1333 16.6671C23.1324 18.4352 22.4292 20.1305 21.1783 21.3801C19.9275 22.6298 18.2314 23.3313 16.4633 23.3304C14.6952 23.3295 12.9999 22.6263 11.7503 21.3754C10.5006 20.1246 9.7991 18.4285 9.79999 16.6604C9.80087 14.8923 10.5041 13.197 11.755 11.9473C13.0058 10.6977 14.7019 9.99619 16.47 9.99707C18.2381 9.99796 19.9334 10.7012 21.1831 11.952C22.4327 13.2029 23.1342 14.899 23.1333 16.6671ZM23.3333 28.2671H9.99999V70.0004H23.3333V28.2671ZM44.4 28.2671H31.1333V70.0004H44.2667V48.1004C44.2667 35.9004 60.1667 34.7671 60.1667 48.1004V70.0004H73.3333V43.5671C73.3333 23.0004 49.8 23.7671 44.2667 33.8671L44.4 28.2671Z" fill="white" fill-opacity="0.7"/>
</svg>
