<svg width="80" height="80" viewBox="0 0 80 80" fill="none" xmlns="http://www.w3.org/2000/svg">
<path d="M40.0034 6.66699C58.4134 6.66699 73.3367 21.5903 73.3367 40.0003C73.3367 58.4103 58.4134 73.3337 40.0034 73.3337C34.1126 73.3432 28.3256 71.7842 23.2367 68.817L6.68336 73.3337L11.19 56.7737C8.22034 51.6832 6.66019 45.8937 6.67003 40.0003C6.67003 21.5903 21.5934 6.66699 40.0034 6.66699ZM28.6434 24.3337L27.9767 24.3603C27.5451 24.3866 27.1233 24.5 26.7367 24.6937C26.3751 24.8984 26.045 25.1544 25.7567 25.4537C25.3567 25.8303 25.13 26.157 24.8867 26.4737C23.6538 28.0767 22.9899 30.0447 23 32.067C23.0067 33.7003 23.4334 35.2903 24.1 36.777C25.4634 39.7837 27.7067 42.967 30.6667 45.917C31.38 46.627 32.08 47.3403 32.8334 48.0037C36.5113 51.2419 40.8942 53.5771 45.6334 54.8237L47.5267 55.1137C48.1434 55.147 48.76 55.1003 49.38 55.0703C50.3508 55.0202 51.2987 54.7573 52.1567 54.3003C52.5932 54.0755 53.0192 53.8308 53.4334 53.567C53.4334 53.567 53.5767 53.4737 53.85 53.267C54.3 52.9337 54.5767 52.697 54.95 52.307C55.2267 52.0203 55.4667 51.6837 55.65 51.3003C55.91 50.757 56.17 49.7203 56.2767 48.857C56.3567 48.197 56.3334 47.837 56.3234 47.6137C56.31 47.257 56.0134 46.887 55.69 46.7303L53.75 45.8603C53.75 45.8603 50.85 44.597 49.0767 43.7903C48.8911 43.7093 48.6923 43.663 48.49 43.6537C48.262 43.6302 48.0315 43.6559 47.8142 43.7289C47.5969 43.8019 47.3977 43.9206 47.23 44.077C47.2134 44.0703 46.99 44.2603 44.58 47.1803C44.4417 47.3662 44.2512 47.5067 44.0327 47.5838C43.8142 47.661 43.5777 47.6714 43.3534 47.6137C43.1362 47.5554 42.9235 47.4819 42.7167 47.3937C42.3034 47.2203 42.16 47.1537 41.8767 47.0337C39.9636 46.1988 38.1923 45.0708 36.6267 43.6903C36.2067 43.3237 35.8167 42.9237 35.4167 42.537C34.1053 41.2811 32.9624 39.8603 32.0167 38.3103L31.82 37.9937C31.6788 37.7809 31.5646 37.5513 31.48 37.3103C31.3534 36.8203 31.6834 36.427 31.6834 36.427C31.6834 36.427 32.4934 35.5403 32.87 35.0603C33.2367 34.5937 33.5467 34.1403 33.7467 33.817C34.14 33.1837 34.2634 32.5337 34.0567 32.0303C33.1234 29.7503 32.1567 27.4803 31.1634 25.227C30.9667 24.7803 30.3834 24.4603 29.8534 24.397C29.6734 24.377 29.4934 24.357 29.3134 24.3437C28.8657 24.3214 28.4171 24.3259 27.97 24.357L28.64 24.3303L28.6434 24.3337Z" fill="#C1C1C1"/>
</svg>
