<svg width="81" height="80" viewBox="0 0 81 80" fill="none" xmlns="http://www.w3.org/2000/svg">
<path d="M33.8334 50.0003L51.1334 40.0003L33.8334 30.0003V50.0003ZM72.3667 23.9003C72.8 25.467 73.1 27.567 73.3 30.2337C73.5334 32.9003 73.6334 35.2003 73.6334 37.2003L73.8334 40.0003C73.8334 47.3003 73.3 52.667 72.3667 56.1003C71.5333 59.1003 69.6 61.0337 66.6 61.867C65.0334 62.3003 62.1667 62.6003 57.7667 62.8003C53.4334 63.0337 49.4667 63.1337 45.8 63.1337L40.5 63.3337C26.5334 63.3337 17.8334 62.8003 14.4 61.867C11.4 61.0337 9.46669 59.1003 8.63335 56.1003C8.20002 54.5337 7.90002 52.4337 7.70002 49.767C7.46669 47.1003 7.36669 44.8003 7.36669 42.8003L7.16669 40.0003C7.16669 32.7003 7.70002 27.3337 8.63335 23.9003C9.46669 20.9003 11.4 18.967 14.4 18.1337C15.9667 17.7003 18.8334 17.4003 23.2334 17.2003C27.5667 16.967 31.5334 16.867 35.2 16.867L40.5 16.667C54.4667 16.667 63.1667 17.2003 66.6 18.1337C69.6 18.967 71.5333 20.9003 72.3667 23.9003Z" fill="#C1C1C1"/>
</svg>
